<svg width="258" height="223" viewBox="0 0 258 223" fill="none" xmlns="http://www.w3.org/2000/svg">
<path d="M65 28.5C65 44.2401 52.2401 57 36.5 57C20.7599 57 8 44.2401 8 28.5C8 12.7599 20.7599 0 36.5 0C52.2401 0 65 12.7599 65 28.5Z" fill="white"/>
<path d="M240 28.5C240 44.2401 227.24 57 211.5 57C195.76 57 183 44.2401 183 28.5C183 12.7599 195.76 0 211.5 0C227.24 0 240 12.7599 240 28.5Z" fill="white"/>
<path fill-rule="evenodd" clip-rule="evenodd" d="M258 223C258 151.755 200.245 94 129 94C57.7553 94 0 151.755 0 223C38.1667 142.833 169.5 86 258 223Z" fill="white"/>
</svg>
