<svg width="108" height="109" viewBox="0 0 108 109" fill="none" xmlns="http://www.w3.org/2000/svg">
<path d="M54 41.6859C51.457 41.6868 48.9714 42.4392 46.8574 43.8478C44.7434 45.2564 43.096 47.258 42.1235 49.5996C41.151 51.9411 40.897 54.5175 41.3937 57.0028C41.8904 59.4882 43.1155 61.771 44.914 63.5626C46.7125 65.3542 49.0038 66.5742 51.498 67.0682C53.9922 67.5623 56.5774 67.3082 58.9268 66.3382C61.2761 65.3682 63.2841 63.7258 64.6968 61.6186C66.1095 59.5115 66.8636 57.0342 66.8636 54.5C66.861 51.1014 65.5048 47.8429 63.0928 45.4402C60.6808 43.0375 57.4104 41.6872 54 41.6859V41.6859ZM84.064 31.8363C83.4094 30.1831 82.4209 28.6816 81.1598 27.4249C79.8987 26.1682 78.392 25.1831 76.733 24.5308C71.6705 22.5392 59.617 22.9861 54 22.9861C48.383 22.9861 36.3415 22.5224 31.2646 24.5308C29.6056 25.1831 28.0989 26.1682 26.8378 27.4249C25.5767 28.6816 24.5882 30.1831 23.9336 31.8363C21.9375 36.8812 22.3835 48.9049 22.3835 54.4976C22.3835 60.0903 21.9375 72.0996 23.9432 77.1613C24.5978 78.8145 25.5863 80.316 26.8474 81.5727C28.1085 82.8294 29.6152 83.8145 31.2742 84.4668C36.3367 86.4584 48.3903 86.0115 54.0096 86.0115C59.629 86.0115 71.6657 86.4752 76.7427 84.4668C78.4016 83.8145 79.9084 82.8294 81.1695 81.5727C82.4305 80.316 83.419 78.8145 84.0737 77.1613C86.0866 72.1164 85.6237 60.0927 85.6237 54.5C85.6237 48.9073 86.0866 36.9004 84.0737 31.8387L84.064 31.8363ZM54 74.1992C50.0903 74.1992 46.2684 73.0439 43.0176 70.8793C39.7668 68.7147 37.2331 65.6381 35.7369 62.0386C34.2407 58.439 33.8492 54.4781 34.612 50.6569C35.3747 46.8356 37.2574 43.3255 40.022 40.5705C42.7866 37.8156 46.3089 35.9394 50.1435 35.1793C53.9781 34.4192 57.9527 34.8093 61.5648 36.3003C65.1769 37.7913 68.2643 40.3162 70.4364 43.5557C72.6085 46.7952 73.7679 50.6039 73.7679 54.5C73.771 57.0878 73.2619 59.6509 72.2696 62.0423C71.2773 64.4337 69.8213 66.6066 67.9851 68.4365C66.1488 70.2664 63.9684 71.7173 61.5686 72.7061C59.1688 73.695 56.5968 74.2024 54 74.1992V74.1992ZM74.5827 38.5725C73.67 38.5729 72.7777 38.3037 72.0186 37.7987C71.2595 37.2938 70.6677 36.5758 70.3181 35.7357C69.9685 34.8955 69.8768 33.9709 70.0545 33.0788C70.2323 32.1867 70.6715 31.3672 71.3167 30.7239C71.9619 30.0806 72.7841 29.6424 73.6792 29.4648C74.5743 29.2872 75.5022 29.3781 76.3455 29.7261C77.1887 30.074 77.9095 30.6634 78.4166 31.4196C78.9237 32.1758 79.1944 33.0649 79.1944 33.9744C79.1969 34.5784 79.0798 35.1769 78.8497 35.7357C78.6196 36.2944 78.281 36.8024 77.8534 37.2305C77.4259 37.6586 76.9177 37.9983 76.3581 38.2303C75.7985 38.4622 75.1984 38.5818 74.5923 38.5821L74.5827 38.5725ZM96.4286 0.6875H11.5714C8.5025 0.6875 5.55926 1.9024 3.38919 4.06493C1.21913 6.22745 0 9.16047 0 12.2188L0 96.7812C0 99.8395 1.21913 102.773 3.38919 104.935C5.55926 107.098 8.5025 108.312 11.5714 108.312H96.4286C99.4975 108.312 102.441 107.098 104.611 104.935C106.781 102.773 108 99.8395 108 96.7812V12.2188C108 9.16047 106.781 6.22745 104.611 4.06493C102.441 1.9024 99.4975 0.6875 96.4286 0.6875V0.6875ZM92.3014 70.3555C91.9904 76.5127 90.5802 81.9684 86.0697 86.4512C81.5593 90.9339 76.0894 92.3681 69.9179 92.6612C63.5513 93.0192 44.4632 93.0192 38.0965 92.6612C31.9179 92.3513 26.4624 90.9436 21.9447 86.4512C17.4271 81.9588 16.0071 76.5007 15.713 70.3555C15.3538 64.0085 15.3538 44.9843 15.713 38.6445C16.024 32.4873 17.4174 27.0316 21.9447 22.5488C26.4721 18.0661 31.942 16.6487 38.0965 16.3556C44.4632 15.9976 63.5513 15.9976 69.9179 16.3556C76.0966 16.6655 81.5689 18.0733 86.0697 22.5656C90.5705 27.058 92.0073 32.5162 92.3014 38.6734C92.6606 44.9963 92.6606 64.0037 92.3014 70.3555Z" fill="white"/>
</svg>
