<svg width="77" height="106" viewBox="0 0 77 106" fill="none" xmlns="http://www.w3.org/2000/svg">
<path d="M0 13.7043V77.2248C0 81.5771 0.639491 84.3626 3.28055 87.8518C5.08702 90.2419 12.3563 95.3088 14.86 96.9499L27.5613 104.585L21.5747 95.5699C16.4768 86.2849 15.6675 82.5419 15.4887 74.4955L15.1274 28.2357C15.1194 27.0281 14.8245 25.8398 14.2671 24.7697C13.7097 23.6995 12.906 22.7783 11.9227 22.0826L0 13.7043Z" fill="url(#paint0_linear_102_3)"/>
<path d="M76.0054 14.1196V77.6437C76.0054 81.9961 75.3659 84.7815 72.7249 88.2707C70.9184 90.6608 63.6474 95.7277 61.1454 97.3707L48.4441 105.005L54.4308 95.9906C59.5286 86.6984 60.3361 82.9554 60.5168 75.9989L60.3831 31.5199C60.3831 26.8756 62.1281 23.5406 65.0618 21.5458L76.0054 14.1196Z" fill="url(#paint1_linear_102_3)"/>
<path opacity="0.98" d="M37.8383 0C37.8383 0 26.5334 18.2127 18.482 26.2953L32.791 39.5337L26.8441 31.5544L34.6842 28.7562C34.6842 28.7562 26.2191 27.1495 37.8329 17.306C37.8329 17.306 50.2199 26.4767 41.4964 28.8088L48.8524 31.3078L43.433 40.2573C47.474 36.2168 54.8607 28.7762 57.1856 26.2935C49.295 18.3687 37.8383 0 37.8383 0Z" fill="url(#paint2_linear_102_3)"/>
<path d="M16.5473 27.2546L37.8383 49.9992L58.9054 27.6173V33.8901C58.9054 37.4028 59.5358 46.4774 55.2382 50.0917L37.8383 66.5018L20.1349 49.9611C16.5491 45.7792 16.5491 36.3601 16.5491 32.9526L16.5473 27.2546Z" fill="url(#paint3_linear_102_3)"/>
<defs>
<linearGradient id="paint0_linear_102_3" x1="-5.98328" y1="50.4873" x2="73.3404" y2="31.5365" gradientUnits="userSpaceOnUse">
<stop stop-color="#08304B"/>
<stop offset="1"/>
</linearGradient>
<linearGradient id="paint1_linear_102_3" x1="42.4608" y1="50.9048" x2="121.785" y2="31.955" gradientUnits="userSpaceOnUse">
<stop stop-color="#08304B"/>
<stop offset="1"/>
</linearGradient>
<linearGradient id="paint2_linear_102_3" x1="10.0798" y1="16.2938" x2="84.9085" y2="-40.3785" gradientUnits="userSpaceOnUse">
<stop stop-color="#08304B"/>
<stop offset="1"/>
</linearGradient>
<linearGradient id="paint3_linear_102_3" x1="7.34471" y1="43.1396" x2="82.1534" y2="-20.5118" gradientUnits="userSpaceOnUse">
<stop stop-color="#08304B"/>
<stop offset="1"/>
</linearGradient>
</defs>
</svg>
