<svg width="224" height="309" viewBox="0 0 224 309" fill="none" xmlns="http://www.w3.org/2000/svg">
<path d="M0 40.328V227.25C0 240.058 1.88183 248.254 9.65369 258.522C14.9696 265.555 36.3608 280.466 43.7287 285.295L81.1048 307.762L63.4879 281.234C48.4864 253.911 46.1049 242.897 45.5786 219.219L44.5154 83.0895C44.4919 79.5358 43.624 76.0392 41.9838 72.89C40.3437 69.7407 37.9785 67.0299 35.085 64.9827L0 40.328Z" fill="white"/>
<path d="M223.661 41.5501V228.483C223.661 241.29 221.78 249.487 214.008 259.755C208.692 266.788 187.295 281.698 179.933 286.533L142.557 309L160.174 282.472C175.175 255.128 177.551 244.113 178.083 223.642L177.689 92.7539C177.689 79.0871 182.825 69.2733 191.458 63.4031L223.661 41.5501Z" fill="white"/>
<path opacity="0.98" d="M111.347 0C111.347 0 78.08 53.5946 54.387 77.3794L96.4943 116.336L78.9943 92.8553L102.065 84.6211C102.065 84.6211 77.155 79.8929 111.331 50.9263C111.331 50.9263 147.782 77.9131 122.112 84.7758L143.758 92.1295L127.81 118.465C139.702 106.575 161.439 84.6798 168.28 77.3741C145.06 54.0535 111.347 0 111.347 0Z" fill="white"/>
<path d="M48.6936 80.2025L111.347 147.133L173.341 81.2698V99.7288C173.341 110.066 175.196 136.77 162.55 147.405L111.347 195.695L59.251 147.021C48.6989 134.715 48.6989 106.997 48.6989 96.9698L48.6936 80.2025Z" fill="white"/>
</svg>
