<svg width="265" height="511" viewBox="0 0 265 511" fill="none" xmlns="http://www.w3.org/2000/svg">
<path d="M264.874 68.7123V377.847C264.874 399.027 261.762 412.582 248.909 429.562C240.118 441.193 204.734 465.851 192.559 473.846L130.749 511L159.883 467.13C184.691 421.911 188.62 403.696 189.5 369.842L188.849 153.389C188.849 130.788 197.341 114.559 211.618 104.851L264.874 68.7123Z" fill="white"/>
<path fill-rule="evenodd" clip-rule="evenodd" d="M79.1369 0L79.1105 84.218C79.1105 84.218 139.391 128.846 96.9387 140.196L132.736 152.357L106.363 195.908C126.028 176.246 161.975 140.037 173.289 127.955C134.89 89.3895 79.1369 0 79.1369 0Z" fill="white"/>
<path fill-rule="evenodd" clip-rule="evenodd" d="M181.658 134.398L79.1368 243.317V323.625L163.812 243.767C182.615 227.954 182.033 190.661 181.724 170.871C181.689 168.65 181.658 166.649 181.658 164.924V134.398Z" fill="white"/>
</svg>
