<svg width="105" height="106" viewBox="0 0 105 106" fill="none" xmlns="http://www.w3.org/2000/svg">
<path d="M52.5 21.7813C35.4609 21.7813 21.6094 35.6328 21.5859 52.6719C21.5859 58.5078 23.2266 64.2031 26.3203 69.1016L27.0469 70.2734L23.9297 81.6641L35.625 78.5938L36.75 79.2734C41.4844 82.0859 46.9219 83.5859 52.4766 83.5859H52.5C69.5156 83.5859 83.7422 69.7344 83.7422 52.6953C83.7422 44.4453 80.1797 36.6875 74.3438 30.8516C68.4844 24.9922 60.75 21.7813 52.5 21.7813ZM70.6641 65.9375C69.8906 68.1172 66.1875 70.0859 64.4062 70.3438C61.4531 70.7891 59.1563 70.5547 53.2734 68.0234C43.9688 63.9922 37.875 54.6172 37.4063 54.0078C36.9375 53.3984 33.6094 48.9688 33.6094 44.3984C33.6094 39.8281 36 37.5781 36.8672 36.6406C37.7109 35.7031 38.7187 35.4687 39.3516 35.4687C39.9609 35.4687 40.5938 35.4688 41.1328 35.4922C41.6953 35.5156 42.4687 35.2813 43.2187 37.0859C43.9922 38.9375 45.8438 43.5078 46.0781 43.9766C46.3125 44.4453 46.4766 44.9844 46.1484 45.5937C44.3672 49.1562 42.4688 49.0156 43.4297 50.6562C47.0156 56.8203 50.6016 58.9531 56.0625 61.6953C57 62.1641 57.5391 62.0938 58.0781 61.4609C58.6172 60.8516 60.3984 58.7422 61.0078 57.8281C61.6172 56.8906 62.25 57.0547 63.0938 57.3594C63.9375 57.6641 68.5078 59.9141 69.4453 60.3828C70.3828 60.8516 70.9922 61.0859 71.2266 61.4609C71.4375 61.9063 71.4375 63.7813 70.6641 65.9375V65.9375ZM93.75 0.5H11.25C5.03906 0.5 0 5.53906 0 11.75V94.25C0 100.461 5.03906 105.5 11.25 105.5H93.75C99.9609 105.5 105 100.461 105 94.25V11.75C105 5.53906 99.9609 0.5 93.75 0.5ZM52.4766 89.8438C46.2422 89.8438 40.125 88.2734 34.7109 85.3203L15 90.5L20.2734 71.2344C17.0156 65.6094 15.3047 59.2109 15.3047 52.6484C15.3281 32.1641 31.9922 15.5 52.4766 15.5C62.4141 15.5 71.7422 19.3672 78.7734 26.3984C85.7813 33.4297 90 42.7578 90 52.6953C90 73.1797 72.9609 89.8438 52.4766 89.8438Z" fill="white"/>
</svg>
